# xmcd CD database file
#
# Track frame offsets:
#	150
#	16027
#	28355
#	42150
#	54866
#
# Disc length: 1107 seconds
#
# Revision: 0
# Processed by: cddbd v1.5.1PL0 Copyright (c) Steve Scherf et al.
# Submitted via: CDex 1.51
#
DISCID=32045105
DTITLE=My Disco - Language Of Numbers
DYEAR=2004
DGENRE=Rock
TTITLE0=In The Benelux
TTITLE1=See Life
TTITLE2=Installation Of Camaraderie
TTITLE3=In Figures Of Speech
TTITLE4=A Moment Of Revelation
EXTD=YEAR: 2004
EXTT0=
EXTT1=
EXTT2=
EXTT3=
EXTT4=
PLAYORDER=
